<svg width="68" height="68" viewBox="0 0 68 68" fill="none" xmlns="http://www.w3.org/2000/svg">
<path d="M66.5832 48.1668C66.5832 48.9182 66.2847 49.6389 65.7533 50.1703C65.222 50.7016 64.5013 51.0001 63.7498 51.0001H32.5832L21.2498 62.3334V51.0001H4.24984C3.49839 51.0001 2.77772 50.7016 2.24637 50.1703C1.71502 49.6389 1.4165 48.9182 1.4165 48.1668V8.50011C1.4165 7.74866 1.71502 7.02799 2.24637 6.49664C2.77772 5.96529 3.49839 5.66678 4.24984 5.66678H63.7498C64.5013 5.66678 65.222 5.96529 65.7533 6.49664C66.2847 7.02799 66.5832 7.74866 66.5832 8.50011V48.1668Z" stroke="white" stroke-width="2" stroke-linecap="round" stroke-linejoin="round"/>
<path d="M15.583 34H52.4163" stroke="white" stroke-width="2" stroke-linecap="round" stroke-linejoin="round"/>
<path d="M15.583 19.8336H52.4163" stroke="white" stroke-width="2" stroke-linecap="round" stroke-linejoin="round"/>
</svg>
